HIERARCHY
ROOT Hips
{
    OFFSET 0.000000 0.000000 0.000000
    CHANNELS 6 Xposition Yposition Zposition Zrotation Xrotation Yrotation
    JOINT Spine
    {
        OFFSET -0.000000 14.517291 0.000000
        CHANNELS 3 Zrotation Xrotation Yrotation
        JOINT Spine1
        {
            OFFSET -0.000000 37.558300 0.000000
            CHANNELS 3 Zrotation Xrotation Yrotation
            JOINT Neck
            {
                OFFSET -0.000000 37.404057 3.400369
                CHANNELS 3 Zrotation Xrotation Yrotation
                JOINT Head
                {
                    OFFSET -0.000000 24.785618 -3.540803
                    CHANNELS 3 Zrotation Xrotation Yrotation
                    End Site
                    {
                        OFFSET -0.000000 35.408028 0.000000
                    }
                }
            }
            JOINT LeftShoulder
            {
                OFFSET 6.992933 33.973492 -0.192664
                CHANNELS 3 Zrotation Xrotation Yrotation
                JOINT LeftArm
                {
                    OFFSET 21.527611 0.000000 0.000000
                    CHANNELS 3 Zrotation Xrotation Yrotation
                    JOINT LeftForeArm
                    {
                        OFFSET 56.353916 0.000000 0.000000
                        CHANNELS 3 Zrotation Xrotation Yrotation
                        JOINT LeftHand
                        {
                            OFFSET 47.774071 0.000000 0.000000
                            CHANNELS 3 Zrotation Xrotation Yrotation
                            End Site
                            {
                                OFFSET 26.556021 0.000000 0.000000
                            }
                        }
                    }
                }
            }
            JOINT RightShoulder
            {
                OFFSET -7.065357 33.973492 -0.192664
                CHANNELS 3 Zrotation Xrotation Yrotation
                JOINT RightArm
                {
                    OFFSET -21.527611 0.000000 0.000000
                    CHANNELS 3 Zrotation Xrotation Yrotation
                    JOINT RightForeArm
                    {
                        OFFSET -56.353916 0.000000 0.000000
                        CHANNELS 3 Zrotation Xrotation Yrotation
                        JOINT RightHand
                        {
                            OFFSET -47.774071 0.000000 0.000000
                            CHANNELS 3 Zrotation Xrotation Yrotation
                            End Site
                            {
                                OFFSET -26.556021 0.000000 0.000000
                            }
                        }
                    }
                }
            }
        }
    }
    JOINT LeftUpLeg
    {
        OFFSET 17.704014 0.000000 0.000000
        CHANNELS 3 Zrotation Xrotation Yrotation
        JOINT LeftLeg
        {
            OFFSET -0.000000 -81.181816 0.000000
            CHANNELS 3 Zrotation Xrotation Yrotation
            JOINT LeftFoot
            {
                OFFSET -0.000000 -62.821102 0.000000
                CHANNELS 3 Zrotation Xrotation Yrotation
                JOINT LeftToeBase
                {
                    OFFSET -0.000000 -11.507608 26.556021
                    CHANNELS 3 Zrotation Xrotation Yrotation
                    End Site
                    {
                        OFFSET -0.000000 0.000000 7.081605
                    }
                }
            }
        }
    }
    JOINT RightUpLeg
    {
        OFFSET -17.704014 0.000000 0.000000
        CHANNELS 3 Zrotation Xrotation Yrotation
        JOINT RightLeg
        {
            OFFSET -0.000000 -81.181816 0.000000
            CHANNELS 3 Zrotation Xrotation Yrotation
            JOINT RightFoot
            {
                OFFSET -0.000000 -62.821102 0.000000
                CHANNELS 3 Zrotation Xrotation Yrotation
                JOINT RightToeBase
                {
                    OFFSET -0.000000 -11.507608 26.556021
                    CHANNELS 3 Zrotation Xrotation Yrotation
                    End Site
                    {
                        OFFSET -0.000000 0.000000 7.081605
                    }
                }
            }
        }
    }
}
MOTION
Frames:    10
Frame Time:    0.008333
-26.439524    152.849976    -33.121140    0.311579    1.686532    17.936317    -2.608272    2.579122    5.726480    -3.062227    -0.200739    1.884297    -1.770182    3.861164    -13.752431    15.146608    -7.560751    -11.010222    2.049068    5.534200    -9.176724    -38.281460    16.370346    -55.574535    -3.679576    -27.770531    -123.970184    -5.395605    -33.368862    -8.903445    -1.408236    9.961080    -2.500320    39.902042    6.641625    41.106354    -21.227694    -38.144653    76.089348    13.477297    -21.371180    21.012119    -0.046470    -32.519684    -26.165295    -11.187336    23.116587    -23.494270    -9.435706    0.070159    33.543495    0.000000    0.000000    0.000000    0.732876    7.732894    -20.634085    2.859907    25.519676    -4.874299    1.298838    -30.743494    -9.245443    0.000000    0.000000    0.000000    
-26.446548    152.848877    -33.114391    0.316689    1.678049    17.937395    -2.609825    2.585706    5.729068    -3.057529    -0.204975    1.884997    -1.785150    3.862742    -13.758832    15.158234    -7.555796    -11.013484    2.049317    5.533422    -9.179177    -38.275997    16.382799    -55.574154    -3.676103    -27.774984    -123.968796    -5.399095    -33.367146    -8.903327    -1.344033    9.997231    -2.509031    40.086372    6.752990    41.311687    -21.479424    -38.262909    75.961937    13.384703    -21.372530    20.993559    -0.046738    -32.510422    -26.153669    -11.181287    23.124102    -23.505123    -9.427450    0.067495    33.538120    0.000000    0.000000    0.000000    0.735439    7.739552    -20.618477    2.866373    25.515635    -4.867244    1.247251    -30.722252    -9.309152    0.000000    0.000000    0.000000    
-26.452850    152.847534    -33.112797    0.316907    1.671331    17.941933    -2.611166    2.595078    5.728221    -3.040609    -0.213203    1.884442    -1.803694    3.850131    -13.764437    15.155679    -7.539920    -11.019600    2.040350    5.531346    -9.177595    -38.272072    16.385321    -55.566936    -3.676493    -27.745352    -123.966057    -5.385032    -33.340214    -8.907998    -1.282839    10.028315    -2.518428    40.274734    6.832325    41.510849    -21.697945    -38.357643    75.858452    13.403878    -21.351372    20.925140    -0.045926    -32.505039    -26.161358    -11.181226    23.124199    -23.510267    -9.432657    0.063192    33.545403    0.000000    0.000000    0.000000    0.741551    7.746246    -20.629757    2.857148    25.517206    -4.852049    1.247345    -30.724886    -9.308074    0.000000    0.000000    0.000000    
-26.458710    152.845795    -33.111053    0.319906    1.673389    17.942112    -2.614760    2.592713    5.728014    -3.033055    -0.220499    1.884181    -1.807721    3.856059    -13.768064    15.150451    -7.544595    -11.023503    2.040165    5.536105    -9.179248    -38.266636    16.389528    -55.564209    -3.679632    -27.740282    -123.969284    -5.402867    -33.340172    -8.894391    -1.217690    10.080333    -2.529990    40.456432    6.930859    41.727127    -21.910580    -38.480202    75.759613    13.386946    -21.374176    20.848751    -0.045151    -32.505840    -26.164841    -11.187057    23.120747    -23.510353    -9.435269    0.054625    33.560986    0.000000    0.000000    0.000000    0.739890    7.747847    -20.630062    2.851778    25.526384    -4.841493    1.279981    -30.753540    -9.273911    0.000000    0.000000    0.000000    
-26.463163    152.843048    -33.108223    0.322193    1.668844    17.940897    -2.614885    2.596289    5.730379    -3.020860    -0.225135    1.884827    -1.828312    3.844889    -13.770546    15.151295    -7.535740    -11.024529    2.030557    5.537373    -9.188186    -38.244064    16.401312    -55.559696    -3.666931    -27.751701    -123.963043    -5.403832    -33.329659    -8.904321    -1.165162    10.121520    -2.539908    40.614075    7.040561    41.933300    -22.065275    -38.605583    75.696579    13.391889    -21.425957    20.816391    -0.043656    -32.502533    -26.146988    -11.179328    23.131615    -23.518663    -9.431118    0.050088    33.537403    0.000000    0.000000    0.000000    0.740624    7.757071    -20.625650    2.860176    25.519169    -4.863400    1.290035    -30.758699    -9.264466    0.000000    0.000000    0.000000    
-26.466583    152.841431    -33.107304    0.322345    1.668925    17.937252    -2.613422    2.595997    5.732054    -3.010085    -0.233564    1.885214    -1.835256    3.835522    -13.770638    15.137685    -7.530694    -11.027130    2.018024    5.536968    -9.185781    -38.217728    16.430075    -55.561840    -3.661073    -27.771492    -123.958237    -5.404464    -33.338161    -8.912712    -1.119513    10.178628    -2.547946    40.765514    7.173290    42.145348    -22.297018    -38.750122    75.572037    13.466113    -21.449457    20.776011    -0.044736    -32.500603    -26.134798    -11.168909    23.133505    -23.519114    -9.426269    0.048474    33.535889    0.000000    0.000000    0.000000    0.739634    7.758684    -20.620226    2.865239    25.517765    -4.850123    1.273563    -30.761982    -9.274834    0.000000    0.000000    0.000000    
-26.473423    152.840439    -33.105659    0.324228    1.662222    17.933765    -2.617096    2.604537    5.731480    -2.993676    -0.245847    1.884630    -1.864675    3.842561    -13.772520    15.163576    -7.533888    -11.020087    2.011239    5.546967    -9.186951    -38.196236    16.445328    -55.563656    -3.650310    -27.798403    -123.954094    -5.428022    -33.344372    -8.918155    -1.092034    10.212741    -2.529624    40.946297    7.249752    42.304852    -22.420507    -38.829220    75.530327    13.528270    -21.452312    20.764397    -0.038493    -32.492210    -26.123169    -11.166192    23.132055    -23.529888    -9.427851    0.045729    33.540489    0.000000    0.000000    0.000000    0.741630    7.761084    -20.624769    2.864827    25.512875    -4.863172    1.242362    -30.743525    -9.291819    0.000000    0.000000    0.000000    
-26.475006    152.839554    -33.103531    0.324850    1.654569    17.933411    -2.612759    2.614356    5.737575    -2.984037    -0.259593    1.886305    -1.866703    3.844512    -13.774640    15.153180    -7.546460    -11.022614    2.000932    5.547507    -9.205306    -38.191055    16.448084    -55.551876    -3.654922    -27.782412    -123.958893    -5.389940    -33.340866    -8.888948    -1.054353    10.260944    -2.535166    41.074551    7.404610    42.498245    -22.593653    -38.992531    75.440735    13.515977    -21.545275    20.753765    -0.036553    -32.485226    -26.132790    -11.170929    23.134331    -23.522812    -9.419932    0.041521    33.540630    0.000000    0.000000    0.000000    0.745066    7.771272    -20.631386    2.859021    25.506901    -4.856585    1.249103    -30.741348    -9.274527    0.000000    0.000000    0.000000    
-26.476871    152.837494    -33.106033    0.327028    1.654796    17.926683    -2.605392    2.618422    5.741062    -2.989696    -0.267624    1.887266    -1.860823    3.819638    -13.772396    15.137661    -7.535052    -11.025207    2.005657    5.539682    -9.199204    -38.189636    16.468397    -55.553699    -3.648653    -27.783579    -123.947853    -5.419016    -33.327469    -8.918135    -1.018719    10.279835    -2.523298    41.204155    7.558287    42.664497    -22.767612    -39.143841    75.345840    13.571489    -21.612656    20.753288    -0.033544    -32.486187    -26.128084    -11.173665    23.133030    -23.512875    -9.414724    0.047010    33.531597    0.000000    0.000000    0.000000    0.740977    7.768043    -20.639688    2.853244    25.515450    -4.859896    1.267505    -30.750175    -9.256855    0.000000    0.000000    0.000000    
-26.481682    152.837891    -33.104626    0.327126    1.653747    17.923506    -2.608496    2.622455    5.748425    -2.977596    -0.281797    1.889345    -1.858379    3.810739    -13.780342    15.125642    -7.533919    -11.036289    1.999329    5.547334    -9.203718    -38.183681    16.474936    -55.559513    -3.662014    -27.769331    -123.948792    -5.426247    -33.334511    -8.925116    -0.988673    10.310001    -2.522516    41.317116    7.720592    42.834232    -23.009617    -39.283501    75.182869    13.604098    -21.640200    20.748549    -0.032209    -32.483414    -26.124664    -11.165804    23.134645    -23.524757    -9.423681    0.038426    33.540905    0.000000    0.000000    0.000000    0.744480    7.769819    -20.651434    2.844222    25.509565    -4.843507    1.261555    -30.746758    -9.257101    0.000000    0.000000    0.000000    
